<mxfile host="app.diagrams.net" modified="2021-05-10T08:29:58.179Z" agent="5.0 (X11; Linux x86_64) AppleWebKit/537.36 (KHTML, like Gecko) Chrome/90.0.4430.93 Safari/537.36" etag="alA6ucg4vM5JE_BpHAHr" version="14.6.11" type="github">
  <diagram id="c7RSiAgEq7K3T1tGgwCF" name="Page-1">
    <mxGraphModel dx="1185" dy="634" grid="1" gridSize="10" guides="1" tooltips="1" connect="1" arrows="1" fold="1" page="1" pageScale="1" pageWidth="4681" pageHeight="3300" math="0" shadow="0">
      <root>
        <mxCell id="0" />
        <mxCell id="1" parent="0" />
        <mxCell id="BD_xdXeXPQXrnNX-kLKR-1" value="Usuário" style="whiteSpace=wrap;html=1;align=center;" vertex="1" parent="1">
          <mxGeometry x="740" y="560" width="100" height="40" as="geometry" />
        </mxCell>
        <mxCell id="BD_xdXeXPQXrnNX-kLKR-3" value="CPF" style="ellipse;whiteSpace=wrap;html=1;align=center;fontStyle=4;" vertex="1" parent="1">
          <mxGeometry x="830" y="410" width="100" height="40" as="geometry" />
        </mxCell>
        <mxCell id="BD_xdXeXPQXrnNX-kLKR-4" value="" style="endArrow=none;html=1;rounded=0;exitX=0.75;exitY=0;exitDx=0;exitDy=0;entryX=0.5;entryY=1;entryDx=0;entryDy=0;" edge="1" parent="1" source="BD_xdXeXPQXrnNX-kLKR-1" target="BD_xdXeXPQXrnNX-kLKR-3">
          <mxGeometry relative="1" as="geometry">
            <mxPoint x="1160" y="670" as="sourcePoint" />
            <mxPoint x="1320" y="670" as="targetPoint" />
          </mxGeometry>
        </mxCell>
        <mxCell id="BD_xdXeXPQXrnNX-kLKR-5" value="" style="endArrow=none;html=1;rounded=0;exitX=1;exitY=0;exitDx=0;exitDy=0;entryX=0;entryY=0.5;entryDx=0;entryDy=0;" edge="1" parent="1" source="BD_xdXeXPQXrnNX-kLKR-1" target="BD_xdXeXPQXrnNX-kLKR-6">
          <mxGeometry relative="1" as="geometry">
            <mxPoint x="1160" y="670" as="sourcePoint" />
            <mxPoint x="960" y="470" as="targetPoint" />
          </mxGeometry>
        </mxCell>
        <mxCell id="BD_xdXeXPQXrnNX-kLKR-6" value="Nome" style="ellipse;whiteSpace=wrap;html=1;align=center;" vertex="1" parent="1">
          <mxGeometry x="940" y="430" width="100" height="40" as="geometry" />
        </mxCell>
        <mxCell id="BD_xdXeXPQXrnNX-kLKR-7" value="Endereço" style="ellipse;whiteSpace=wrap;html=1;align=center;" vertex="1" parent="1">
          <mxGeometry x="950" y="480" width="100" height="40" as="geometry" />
        </mxCell>
        <mxCell id="BD_xdXeXPQXrnNX-kLKR-9" value="" style="endArrow=none;html=1;rounded=0;exitX=1;exitY=0.25;exitDx=0;exitDy=0;entryX=0;entryY=0.5;entryDx=0;entryDy=0;" edge="1" parent="1" source="BD_xdXeXPQXrnNX-kLKR-1" target="BD_xdXeXPQXrnNX-kLKR-7">
          <mxGeometry relative="1" as="geometry">
            <mxPoint x="1060" y="570" as="sourcePoint" />
            <mxPoint x="1220" y="570" as="targetPoint" />
          </mxGeometry>
        </mxCell>
        <mxCell id="BD_xdXeXPQXrnNX-kLKR-10" value="Área de pesquisa" style="ellipse;shape=doubleEllipse;margin=3;whiteSpace=wrap;html=1;align=center;" vertex="1" parent="1">
          <mxGeometry x="540" y="620" width="100" height="40" as="geometry" />
        </mxCell>
        <mxCell id="BD_xdXeXPQXrnNX-kLKR-12" value="Instituição" style="ellipse;whiteSpace=wrap;html=1;align=center;" vertex="1" parent="1">
          <mxGeometry x="510" y="460" width="100" height="40" as="geometry" />
        </mxCell>
        <mxCell id="BD_xdXeXPQXrnNX-kLKR-14" value="Data de Nascimento" style="ellipse;whiteSpace=wrap;html=1;align=center;" vertex="1" parent="1">
          <mxGeometry x="500" y="540" width="100" height="40" as="geometry" />
        </mxCell>
        <mxCell id="BD_xdXeXPQXrnNX-kLKR-16" value="Login" style="ellipse;whiteSpace=wrap;html=1;align=center;" vertex="1" parent="1">
          <mxGeometry x="600" y="410" width="100" height="40" as="geometry" />
        </mxCell>
        <mxCell id="BD_xdXeXPQXrnNX-kLKR-17" value="Senha" style="ellipse;whiteSpace=wrap;html=1;align=center;" vertex="1" parent="1">
          <mxGeometry x="720" y="410" width="100" height="40" as="geometry" />
        </mxCell>
        <mxCell id="BD_xdXeXPQXrnNX-kLKR-18" value="" style="endArrow=none;html=1;rounded=0;entryX=0.5;entryY=0;entryDx=0;entryDy=0;exitX=1;exitY=0.5;exitDx=0;exitDy=0;" edge="1" parent="1" source="BD_xdXeXPQXrnNX-kLKR-16" target="BD_xdXeXPQXrnNX-kLKR-1">
          <mxGeometry relative="1" as="geometry">
            <mxPoint x="620" y="530" as="sourcePoint" />
            <mxPoint x="780" y="530" as="targetPoint" />
          </mxGeometry>
        </mxCell>
        <mxCell id="BD_xdXeXPQXrnNX-kLKR-19" value="" style="endArrow=none;html=1;rounded=0;entryX=0.25;entryY=0;entryDx=0;entryDy=0;exitX=1;exitY=0.5;exitDx=0;exitDy=0;" edge="1" parent="1" source="BD_xdXeXPQXrnNX-kLKR-12" target="BD_xdXeXPQXrnNX-kLKR-1">
          <mxGeometry relative="1" as="geometry">
            <mxPoint x="740" y="550" as="sourcePoint" />
            <mxPoint x="900" y="550" as="targetPoint" />
          </mxGeometry>
        </mxCell>
        <mxCell id="BD_xdXeXPQXrnNX-kLKR-20" value="" style="endArrow=none;html=1;rounded=0;entryX=0;entryY=0;entryDx=0;entryDy=0;exitX=1;exitY=0.5;exitDx=0;exitDy=0;" edge="1" parent="1" source="BD_xdXeXPQXrnNX-kLKR-14" target="BD_xdXeXPQXrnNX-kLKR-1">
          <mxGeometry relative="1" as="geometry">
            <mxPoint x="610" y="560" as="sourcePoint" />
            <mxPoint x="700" y="580" as="targetPoint" />
          </mxGeometry>
        </mxCell>
        <mxCell id="BD_xdXeXPQXrnNX-kLKR-21" value="" style="endArrow=none;html=1;rounded=0;entryX=0;entryY=0.25;entryDx=0;entryDy=0;exitX=1;exitY=0.5;exitDx=0;exitDy=0;" edge="1" parent="1" source="BD_xdXeXPQXrnNX-kLKR-10" target="BD_xdXeXPQXrnNX-kLKR-1">
          <mxGeometry relative="1" as="geometry">
            <mxPoint x="710" y="660" as="sourcePoint" />
            <mxPoint x="870" y="660" as="targetPoint" />
          </mxGeometry>
        </mxCell>
        <mxCell id="BD_xdXeXPQXrnNX-kLKR-22" value="Perfil" style="whiteSpace=wrap;html=1;align=center;" vertex="1" parent="1">
          <mxGeometry x="1270" y="560" width="100" height="40" as="geometry" />
        </mxCell>
        <mxCell id="BD_xdXeXPQXrnNX-kLKR-23" value="Associado" style="shape=rhombus;perimeter=rhombusPerimeter;whiteSpace=wrap;html=1;align=center;" vertex="1" parent="1">
          <mxGeometry x="1020" y="550" width="120" height="60" as="geometry" />
        </mxCell>
        <mxCell id="BD_xdXeXPQXrnNX-kLKR-24" value="" style="endArrow=none;html=1;rounded=0;exitX=1;exitY=0.5;exitDx=0;exitDy=0;entryX=0;entryY=0.5;entryDx=0;entryDy=0;" edge="1" parent="1" source="BD_xdXeXPQXrnNX-kLKR-1" target="BD_xdXeXPQXrnNX-kLKR-23">
          <mxGeometry relative="1" as="geometry">
            <mxPoint x="890" y="560" as="sourcePoint" />
            <mxPoint x="1050" y="560" as="targetPoint" />
          </mxGeometry>
        </mxCell>
        <mxCell id="BD_xdXeXPQXrnNX-kLKR-25" value="N" style="resizable=0;html=1;align=right;verticalAlign=bottom;" connectable="0" vertex="1" parent="BD_xdXeXPQXrnNX-kLKR-24">
          <mxGeometry x="1" relative="1" as="geometry">
            <mxPoint x="-70" as="offset" />
          </mxGeometry>
        </mxCell>
        <mxCell id="BD_xdXeXPQXrnNX-kLKR-26" value="" style="endArrow=none;html=1;rounded=0;entryX=0;entryY=0.5;entryDx=0;entryDy=0;exitX=1;exitY=0.5;exitDx=0;exitDy=0;" edge="1" parent="1" source="BD_xdXeXPQXrnNX-kLKR-23" target="BD_xdXeXPQXrnNX-kLKR-22">
          <mxGeometry relative="1" as="geometry">
            <mxPoint x="1030" y="639.66" as="sourcePoint" />
            <mxPoint x="1190" y="639.66" as="targetPoint" />
          </mxGeometry>
        </mxCell>
        <mxCell id="BD_xdXeXPQXrnNX-kLKR-27" value="N" style="resizable=0;html=1;align=right;verticalAlign=bottom;" connectable="0" vertex="1" parent="BD_xdXeXPQXrnNX-kLKR-26">
          <mxGeometry x="1" relative="1" as="geometry">
            <mxPoint x="-60" as="offset" />
          </mxGeometry>
        </mxCell>
        <mxCell id="BD_xdXeXPQXrnNX-kLKR-28" value="Tipo" style="ellipse;whiteSpace=wrap;html=1;align=center;fontStyle=4;" vertex="1" parent="1">
          <mxGeometry x="1160" y="480" width="100" height="40" as="geometry" />
        </mxCell>
        <mxCell id="BD_xdXeXPQXrnNX-kLKR-29" value="" style="endArrow=none;html=1;rounded=0;entryX=0;entryY=0;entryDx=0;entryDy=0;exitX=0.5;exitY=1;exitDx=0;exitDy=0;" edge="1" parent="1" source="BD_xdXeXPQXrnNX-kLKR-28" target="BD_xdXeXPQXrnNX-kLKR-22">
          <mxGeometry relative="1" as="geometry">
            <mxPoint x="1100" y="560" as="sourcePoint" />
            <mxPoint x="1260" y="560" as="targetPoint" />
          </mxGeometry>
        </mxCell>
        <mxCell id="BD_xdXeXPQXrnNX-kLKR-30" value="Serviço" style="whiteSpace=wrap;html=1;align=center;" vertex="1" parent="1">
          <mxGeometry x="1270" y="840" width="100" height="40" as="geometry" />
        </mxCell>
        <mxCell id="BD_xdXeXPQXrnNX-kLKR-31" value="Desrição" style="ellipse;whiteSpace=wrap;html=1;align=center;" vertex="1" parent="1">
          <mxGeometry x="1270" y="960" width="100" height="40" as="geometry" />
        </mxCell>
        <mxCell id="BD_xdXeXPQXrnNX-kLKR-33" value="Código" style="ellipse;whiteSpace=wrap;html=1;align=center;fontStyle=4;" vertex="1" parent="1">
          <mxGeometry x="1150" y="960" width="100" height="40" as="geometry" />
        </mxCell>
        <mxCell id="BD_xdXeXPQXrnNX-kLKR-34" value="Tipo" style="ellipse;whiteSpace=wrap;html=1;align=center;" vertex="1" parent="1">
          <mxGeometry x="1390" y="960" width="100" height="40" as="geometry" />
        </mxCell>
        <mxCell id="BD_xdXeXPQXrnNX-kLKR-35" value="" style="endArrow=none;html=1;rounded=0;exitX=0.5;exitY=0;exitDx=0;exitDy=0;entryX=0;entryY=1;entryDx=0;entryDy=0;" edge="1" parent="1" source="BD_xdXeXPQXrnNX-kLKR-33" target="BD_xdXeXPQXrnNX-kLKR-30">
          <mxGeometry relative="1" as="geometry">
            <mxPoint x="1210" y="890" as="sourcePoint" />
            <mxPoint x="1370" y="890" as="targetPoint" />
          </mxGeometry>
        </mxCell>
        <mxCell id="BD_xdXeXPQXrnNX-kLKR-36" value="" style="endArrow=none;html=1;rounded=0;entryX=0.5;entryY=1;entryDx=0;entryDy=0;exitX=0.5;exitY=0;exitDx=0;exitDy=0;" edge="1" parent="1" source="BD_xdXeXPQXrnNX-kLKR-31" target="BD_xdXeXPQXrnNX-kLKR-30">
          <mxGeometry relative="1" as="geometry">
            <mxPoint x="1210" y="890" as="sourcePoint" />
            <mxPoint x="1370" y="890" as="targetPoint" />
          </mxGeometry>
        </mxCell>
        <mxCell id="BD_xdXeXPQXrnNX-kLKR-37" value="" style="endArrow=none;html=1;rounded=0;entryX=1;entryY=1;entryDx=0;entryDy=0;exitX=0.5;exitY=0;exitDx=0;exitDy=0;" edge="1" parent="1" source="BD_xdXeXPQXrnNX-kLKR-34" target="BD_xdXeXPQXrnNX-kLKR-30">
          <mxGeometry relative="1" as="geometry">
            <mxPoint x="1210" y="890" as="sourcePoint" />
            <mxPoint x="1370" y="890" as="targetPoint" />
          </mxGeometry>
        </mxCell>
        <mxCell id="BD_xdXeXPQXrnNX-kLKR-38" value="Pode realizar" style="shape=rhombus;perimeter=rhombusPerimeter;whiteSpace=wrap;html=1;align=center;" vertex="1" parent="1">
          <mxGeometry x="1260" y="680" width="120" height="60" as="geometry" />
        </mxCell>
        <mxCell id="BD_xdXeXPQXrnNX-kLKR-41" value="" style="endArrow=none;html=1;rounded=0;entryX=0.5;entryY=1;entryDx=0;entryDy=0;exitX=0.5;exitY=0;exitDx=0;exitDy=0;" edge="1" parent="1" source="BD_xdXeXPQXrnNX-kLKR-38" target="BD_xdXeXPQXrnNX-kLKR-22">
          <mxGeometry relative="1" as="geometry">
            <mxPoint x="1290" y="810" as="sourcePoint" />
            <mxPoint x="1450" y="810" as="targetPoint" />
          </mxGeometry>
        </mxCell>
        <mxCell id="BD_xdXeXPQXrnNX-kLKR-42" value="N" style="resizable=0;html=1;align=right;verticalAlign=bottom;" connectable="0" vertex="1" parent="BD_xdXeXPQXrnNX-kLKR-41">
          <mxGeometry x="1" relative="1" as="geometry">
            <mxPoint x="-10" y="50" as="offset" />
          </mxGeometry>
        </mxCell>
        <mxCell id="BD_xdXeXPQXrnNX-kLKR-43" value="" style="endArrow=none;html=1;rounded=0;entryX=0.5;entryY=1;entryDx=0;entryDy=0;exitX=0.5;exitY=0;exitDx=0;exitDy=0;" edge="1" parent="1" source="BD_xdXeXPQXrnNX-kLKR-30" target="BD_xdXeXPQXrnNX-kLKR-38">
          <mxGeometry relative="1" as="geometry">
            <mxPoint x="1480" y="830" as="sourcePoint" />
            <mxPoint x="1480" y="750" as="targetPoint" />
          </mxGeometry>
        </mxCell>
        <mxCell id="BD_xdXeXPQXrnNX-kLKR-44" value="N" style="resizable=0;html=1;align=right;verticalAlign=bottom;" connectable="0" vertex="1" parent="BD_xdXeXPQXrnNX-kLKR-43">
          <mxGeometry x="1" relative="1" as="geometry">
            <mxPoint x="-10" y="50" as="offset" />
          </mxGeometry>
        </mxCell>
        <mxCell id="BD_xdXeXPQXrnNX-kLKR-46" value="Realizou" style="shape=rhombus;perimeter=rhombusPerimeter;whiteSpace=wrap;html=1;align=center;" vertex="1" parent="1">
          <mxGeometry x="950" y="670" width="120" height="60" as="geometry" />
        </mxCell>
        <mxCell id="BD_xdXeXPQXrnNX-kLKR-48" value="" style="endArrow=none;html=1;rounded=0;exitX=1;exitY=1;exitDx=0;exitDy=0;entryX=0;entryY=0.5;entryDx=0;entryDy=0;" edge="1" parent="1" source="BD_xdXeXPQXrnNX-kLKR-1" target="BD_xdXeXPQXrnNX-kLKR-46">
          <mxGeometry relative="1" as="geometry">
            <mxPoint x="720" y="690" as="sourcePoint" />
            <mxPoint x="880" y="690" as="targetPoint" />
          </mxGeometry>
        </mxCell>
        <mxCell id="BD_xdXeXPQXrnNX-kLKR-49" value="N" style="resizable=0;html=1;align=right;verticalAlign=bottom;" connectable="0" vertex="1" parent="BD_xdXeXPQXrnNX-kLKR-48">
          <mxGeometry x="1" relative="1" as="geometry">
            <mxPoint x="-40" y="-50" as="offset" />
          </mxGeometry>
        </mxCell>
        <mxCell id="BD_xdXeXPQXrnNX-kLKR-50" value="" style="endArrow=none;html=1;rounded=0;exitX=1;exitY=0.5;exitDx=0;exitDy=0;entryX=0;entryY=0.5;entryDx=0;entryDy=0;" edge="1" parent="1" source="BD_xdXeXPQXrnNX-kLKR-46" target="BD_xdXeXPQXrnNX-kLKR-30">
          <mxGeometry relative="1" as="geometry">
            <mxPoint x="1070" y="760" as="sourcePoint" />
            <mxPoint x="1230" y="760" as="targetPoint" />
          </mxGeometry>
        </mxCell>
        <mxCell id="BD_xdXeXPQXrnNX-kLKR-51" value="N" style="resizable=0;html=1;align=right;verticalAlign=bottom;" connectable="0" vertex="1" parent="BD_xdXeXPQXrnNX-kLKR-50">
          <mxGeometry x="1" relative="1" as="geometry">
            <mxPoint x="-90" y="-90" as="offset" />
          </mxGeometry>
        </mxCell>
        <mxCell id="BD_xdXeXPQXrnNX-kLKR-52" value="Paciente" style="whiteSpace=wrap;html=1;align=center;" vertex="1" parent="1">
          <mxGeometry x="1650" y="420" width="100" height="40" as="geometry" />
        </mxCell>
        <mxCell id="BD_xdXeXPQXrnNX-kLKR-53" value="RG" style="ellipse;whiteSpace=wrap;html=1;align=center;fontStyle=4;" vertex="1" parent="1">
          <mxGeometry x="1550" y="310" width="100" height="40" as="geometry" />
        </mxCell>
        <mxCell id="BD_xdXeXPQXrnNX-kLKR-54" value="Nome" style="ellipse;whiteSpace=wrap;html=1;align=center;" vertex="1" parent="1">
          <mxGeometry x="1660" y="310" width="100" height="40" as="geometry" />
        </mxCell>
        <mxCell id="BD_xdXeXPQXrnNX-kLKR-56" value="Data de Nascimento" style="ellipse;whiteSpace=wrap;html=1;align=center;" vertex="1" parent="1">
          <mxGeometry x="1910" y="310" width="100" height="40" as="geometry" />
        </mxCell>
        <mxCell id="BD_xdXeXPQXrnNX-kLKR-57" value="Endereço" style="ellipse;whiteSpace=wrap;html=1;align=center;" vertex="1" parent="1">
          <mxGeometry x="1780" y="310" width="100" height="40" as="geometry" />
        </mxCell>
        <mxCell id="BD_xdXeXPQXrnNX-kLKR-58" value="" style="endArrow=none;html=1;rounded=0;exitX=0.5;exitY=1;exitDx=0;exitDy=0;entryX=0;entryY=0;entryDx=0;entryDy=0;" edge="1" parent="1" source="BD_xdXeXPQXrnNX-kLKR-53" target="BD_xdXeXPQXrnNX-kLKR-52">
          <mxGeometry relative="1" as="geometry">
            <mxPoint x="1590" y="510" as="sourcePoint" />
            <mxPoint x="1750" y="510" as="targetPoint" />
          </mxGeometry>
        </mxCell>
        <mxCell id="BD_xdXeXPQXrnNX-kLKR-59" value="" style="endArrow=none;html=1;rounded=0;entryX=0.5;entryY=1;entryDx=0;entryDy=0;exitX=0.25;exitY=0;exitDx=0;exitDy=0;" edge="1" parent="1" source="BD_xdXeXPQXrnNX-kLKR-52" target="BD_xdXeXPQXrnNX-kLKR-54">
          <mxGeometry relative="1" as="geometry">
            <mxPoint x="1590" y="510" as="sourcePoint" />
            <mxPoint x="1750" y="510" as="targetPoint" />
          </mxGeometry>
        </mxCell>
        <mxCell id="BD_xdXeXPQXrnNX-kLKR-60" value="" style="endArrow=none;html=1;rounded=0;entryX=0.5;entryY=1;entryDx=0;entryDy=0;exitX=0.5;exitY=0;exitDx=0;exitDy=0;" edge="1" parent="1" source="BD_xdXeXPQXrnNX-kLKR-52" target="BD_xdXeXPQXrnNX-kLKR-57">
          <mxGeometry relative="1" as="geometry">
            <mxPoint x="1590" y="510" as="sourcePoint" />
            <mxPoint x="1750" y="510" as="targetPoint" />
          </mxGeometry>
        </mxCell>
        <mxCell id="BD_xdXeXPQXrnNX-kLKR-61" value="" style="endArrow=none;html=1;rounded=0;entryX=0.5;entryY=1;entryDx=0;entryDy=0;exitX=0.75;exitY=0;exitDx=0;exitDy=0;" edge="1" parent="1" source="BD_xdXeXPQXrnNX-kLKR-52" target="BD_xdXeXPQXrnNX-kLKR-56">
          <mxGeometry relative="1" as="geometry">
            <mxPoint x="1590" y="510" as="sourcePoint" />
            <mxPoint x="1750" y="510" as="targetPoint" />
          </mxGeometry>
        </mxCell>
        <mxCell id="BD_xdXeXPQXrnNX-kLKR-62" value="Exame" style="whiteSpace=wrap;html=1;align=center;" vertex="1" parent="1">
          <mxGeometry x="1670" y="560" width="100" height="40" as="geometry" />
        </mxCell>
      </root>
    </mxGraphModel>
  </diagram>
</mxfile>
